<?xml version="1.0" encoding="UTF-8"?>
<!DOCTYPE svg PUBLIC "-//W3C//DTD SVG 1.1//EN" "http://www.w3.org/Graphics/SVG/1.1/DTD/svg11.dtd">
<!-- Creator: CorelDRAW 2019 (64-Bit) -->
<svg xmlns="http://www.w3.org/2000/svg" xml:space="preserve" width="11.7522mm" height="3.2378mm" version="1.1" style="shape-rendering:geometricPrecision; text-rendering:geometricPrecision; image-rendering:optimizeQuality; fill-rule:evenodd; clip-rule:evenodd"
viewBox="0 0 85.07 23.44"
 xmlns:xlink="http://www.w3.org/1999/xlink">
 <defs>
  <style type="text/css">
   <![CDATA[
    .fil0 {fill:#333333;fill-rule:nonzero}
   ]]>
  </style>
 </defs>
 <g id="Capa_x0020_1">
  <metadata id="CorelCorpID_0Corel-Layer"/>
  <path class="fil0" d="M81.28 14.96c0.33,0.13 0.85,0.2 1.4,0.2 0.57,0 1.14,-0.07 1.53,-0.18 0.57,-0.15 0.99,-0.77 0.5,-1.18 -0.44,-0.35 -1.09,-0.68 -1.93,-1.14 -0.44,-0.26 -0.94,-0.48 -0.81,-0.79 0.24,-0.57 2.23,-0.94 3.04,-1.23 0.18,-0.22 -0.26,-0.63 -0.61,-0.59 -1.12,0.15 -3.5,0.85 -3.33,2.01 0.09,0.66 0.7,0.88 1.27,1.2 0.44,0.24 1.27,0.66 1.82,0.94 -0.57,0.13 -1.45,0.24 -2.15,0.24 -0.28,0 -0.53,-0.02 -0.72,-0.07 -0.48,-0.11 -0.28,0.44 -0.02,0.57zm-4.91 -3.2c0.24,0.24 -0.37,0.83 -1.29,1.25 -0.02,-0.55 0.83,-1.71 1.29,-1.25zm1.42 3.42c1.51,-0.09 2.91,-1.16 3.53,-2.43 0.31,-0.61 0.39,-1.12 -0.11,-0.59 -0.92,0.96 -2.45,2.5 -4.51,2.5 -0.77,0 -1.53,-0.7 -1.6,-1.12 0.77,0 1.71,-0.53 1.99,-1.23 0.24,-0.63 -0.39,-1.29 -1.07,-1.29 -1.07,0.04 -1.73,1.03 -1.73,1.99 0,0.22 0.04,0.44 0.11,0.63 0.44,1.36 2.1,1.6 3.39,1.53zm-7.95 -5.85c0.2,0.11 0.46,0.11 0.53,0.02 0.07,-0.11 0.24,-0.59 0.28,-0.7 0.07,-0.13 0.07,-0.28 0.07,-0.37 0.04,-0.11 -0.13,-0.28 -0.42,-0.35 -0.22,-0.09 -0.46,-0.04 -0.46,0.09l-0.04 0.33c-0.04,0.11 -0.2,0.55 -0.24,0.61 -0.11,0.09 0.02,0.28 0.28,0.37zm-0.46 5.08c0.42,0.46 1.01,0.59 1.55,0.57 1.51,-0.07 3.5,-1.8 3.92,-2.56 0.26,-0.48 0.04,-0.61 -0.04,-0.53 -0.66,0.66 -2.98,2.41 -4.34,2.41 -0.24,0 -0.46,-0.07 -0.64,-0.2 -0.33,-0.29 0.11,-2.76 0.28,-2.93 0.02,-0.11 -0.11,-0.28 -0.35,-0.37 -0.26,-0.07 -0.48,-0.04 -0.5,0.07 -0.24,0.37 -0.37,1.05 -0.37,1.73 0,0.72 0.15,1.47 0.48,1.82zm-6.28 0.31c0.09,0.33 0.81,0.61 0.79,0.33 0.09,-0.64 0.09,-0.77 0.15,-0.94 0.53,-1.51 2.34,-2.85 3.44,-2.83l-0.02 0.18c-0.02,0.18 0.28,0.31 0.59,-0.04 0.15,-0.18 -0.15,-0.64 -0.66,-0.72 -1.2,-0.2 -2.83,1.07 -3.37,1.77l0.02 -0.85c0,-0.13 -0.13,-0.35 -0.33,-0.46 -0.22,-0.11 -0.44,-0.11 -0.44,0.04 -0.31,2.76 -0.26,3.33 -0.18,3.53zm-5.19 -2.63l0.04 -0.04c0.31,0.2 0.72,0.33 1.23,0.42 0.35,0.79 -0.13,2.04 -1.1,2.08 -0.42,0.02 -0.66,-0.22 -0.77,-0.85 -0.11,-0.61 0.31,-1.38 0.59,-1.6zm5.41 0.18c0.53,-0.18 0.68,-0.46 0.04,-0.44 -0.2,0 -1.05,0.09 -2.08,0.09 -0.5,0 -1.07,-0.02 -1.62,-0.09 -0.33,-0.39 -0.81,-0.68 -1.4,-0.77 -0.44,-0.02 -0.59,0.22 -0.68,0.53 -0.04,0 -0.07,0.02 -0.11,0.02 -0.5,0.18 -1.07,1.23 -0.92,2.15 0.11,0.61 0.66,1.29 1.47,1.34 1.01,0.07 1.91,-0.48 2.1,-1.58 0.07,-0.33 0.04,-0.66 -0.04,-0.94 1.34,0.07 2.76,-0.13 3.24,-0.31zm-9.22 8.89c0.15,0.46 0.83,0.92 0.77,0.42 -0.28,-1.03 -0.37,-3.17 -0.37,-5.41 0,-1.99 0.07,-4.05 0.09,-5.45l0.15 -3.68c0.18,0 0.33,-0.02 0.5,-0.04 1.66,-0.13 4.23,-0.35 6.57,-0.35 1.31,0 2.54,0.07 3.53,0.26 0.18,0.02 0.28,-0.07 0.26,-0.24 -0.09,-0.13 -0.31,-0.35 -0.5,-0.44 -0.79,-0.18 -1.93,-0.24 -3.17,-0.24 -2.15,0 -4.64,0.2 -6.5,0.33 -0.22,0.02 -0.44,0.04 -0.63,0.04 0.09,-1.71 0.22,-3.42 0.37,-4.51 -0.07,-0.44 -0.92,-0.57 -0.9,-0.22 -0.09,1.36 -0.2,3.09 -0.28,4.8 -2.69,0.22 -4.25,0.39 -5.8,0.68 -0.37,0.09 0.09,0.66 0.5,0.59 1.75,-0.31 3.46,-0.44 5.28,-0.59 -0.07,1.34 -0.11,2.63 -0.13,3.66 -0.02,0.85 -0.04,2.04 -0.04,3.31 0,2.93 0.09,6.33 0.33,7.1zm-6.07 -6.2c0.33,0.13 0.85,0.2 1.4,0.2 0.57,0 1.14,-0.07 1.53,-0.18 0.57,-0.15 0.99,-0.77 0.5,-1.18 -0.44,-0.35 -1.1,-0.68 -1.93,-1.14 -0.44,-0.26 -0.94,-0.48 -0.81,-0.79 0.24,-0.57 2.23,-0.94 3.04,-1.23 0.17,-0.22 -0.26,-0.63 -0.61,-0.59 -1.12,0.15 -3.5,0.85 -3.33,2.01 0.09,0.66 0.7,0.88 1.27,1.2 0.44,0.24 1.27,0.66 1.82,0.94 -0.57,0.13 -1.45,0.24 -2.15,0.24 -0.28,0 -0.53,-0.02 -0.72,-0.07 -0.48,-0.11 -0.29,0.44 -0.02,0.57zm-6.68 -0.09c0.9,0 1.53,-0.77 1.97,-1.4 0.31,0.72 0.99,1.25 1.84,1.25 1.51,0.09 2.63,-1.1 3.07,-1.77 0.26,-0.42 0.28,-1.07 0.09,-0.81 -0.72,0.72 -2.04,1.88 -3.55,1.95 -0.61,-0.07 -0.77,-0.59 -0.85,-1.12 0,-0.39 0.02,-0.74 0.04,-0.9 0.04,-0.33 -0.72,-0.72 -0.79,-0.42 -0.18,0.79 -1.64,3.11 -2.54,2.5 -0.24,-0.15 -0.33,-0.5 -0.33,-0.9 0,-0.57 0.2,-1.2 0.5,-1.4 0.11,-0.07 0.15,-0.2 -0.02,-0.37 -0.18,-0.2 -0.42,-0.31 -0.59,-0.26 -0.2,0.07 -0.33,0.26 -0.44,0.48 -0.18,0.31 -0.24,0.68 -0.24,1.03 0,0.28 0.04,0.57 0.13,0.83 0.24,0.74 0.99,1.31 1.71,1.31zm-9.57 -1.1c-0.13,0 -0.18,-0.02 -0.18,-0.02l-0.15 -0.11c-0.13,-0.17 -0.22,-0.39 -0.22,-0.61 0,-0.22 0.07,-0.42 0.24,-0.61 0.24,-0.24 0.68,-0.42 1.27,-0.42 0.33,0 0.7,0.07 1.12,0.18l0.15 0.04 -0.22 0.24 -0.48 0.46c-0.35,0.31 -0.74,0.57 -1.05,0.72 -0.18,0.09 -0.33,0.13 -0.48,0.13zm0.55 9.11c-0.26,0.07 -0.68,-0.11 -1.01,-0.42 -0.26,-0.31 -0.59,-0.85 -0.46,-1.53 0.24,-1.47 1.64,-3.33 3.5,-4.86l0.46 -0.39c0.04,2.82 -0.59,6.81 -2.5,7.2zm-1.44 -0.2c0.61,0.61 1.38,0.83 1.93,0.72 1.91,-0.39 2.61,-3.26 2.78,-6.02l0.07 -2.04 0.02 -0.26 0.63 -0.44c0.92,-0.55 2.36,-1.34 3.24,-1.6 0.17,-0.04 0.22,-0.11 0,-0.26 -0.42,-0.29 -3.28,1.03 -3.88,1.38l-0.02 0.02 0 -0.09c-0.02,-1.27 -0.13,-2.3 -0.15,-2.34 -0.02,-0.31 -0.63,-0.66 -0.77,-0.44 -0.07,0.09 -0.15,0.26 -0.31,0.46l-0.04 0.02 -0.02 -0.02c-0.81,-0.31 -1.53,-0.44 -2.1,-0.44 -0.72,0 -1.14,0.22 -1.51,0.5 -0.22,0.22 -0.33,0.53 -0.33,0.83 0,0.26 0.09,0.55 0.28,0.83 0.15,0.22 0.37,0.44 0.63,0.63 0.04,0.04 0.11,0.09 0.2,0.13 0.22,0.11 0.44,0.15 0.64,0.15 0.28,0 0.53,-0.09 0.72,-0.15 0.37,-0.18 0.74,-0.46 1.12,-0.77 0.28,-0.24 0.55,-0.5 0.74,-0.74l0.07 -0.04 0 0.11 0.04 1.8 0.02 0.09 -0.55 0.39c-2.21,1.64 -3.96,3.7 -4.29,5.39 -0.11,0.79 0.24,1.58 0.83,2.19zm-6.83 -7.82c0.9,0 1.53,-0.77 1.97,-1.4 0.31,0.72 0.99,1.25 1.84,1.25 1.51,0.09 2.63,-1.1 3.07,-1.77 0.26,-0.42 0.28,-1.07 0.09,-0.81 -0.72,0.72 -2.04,1.88 -3.55,1.95 -0.61,-0.07 -0.77,-0.59 -0.85,-1.12 0,-0.39 0.02,-0.74 0.04,-0.9 0.04,-0.33 -0.72,-0.72 -0.79,-0.42 -0.18,0.79 -1.64,3.11 -2.54,2.5 -0.24,-0.15 -0.33,-0.5 -0.33,-0.9 0,-0.57 0.2,-1.2 0.5,-1.4 0.11,-0.07 0.15,-0.2 -0.02,-0.37 -0.18,-0.2 -0.42,-0.31 -0.59,-0.26 -0.2,0.07 -0.33,0.26 -0.44,0.48 -0.18,0.31 -0.24,0.68 -0.24,1.03 0,0.28 0.04,0.57 0.13,0.83 0.24,0.74 0.99,1.31 1.71,1.31zm-13.38 -2.06c-0.39,0 -0.81,0 -1.23,-0.02 0.11,-0.13 0.22,-0.29 0.31,-0.44l0.92 0.46zm6.2 0.68l0.33 0c0.37,1.64 0.81,3.26 1.27,4.95l-0.53 -0.64c-1.4,-1.71 -3.09,-3.09 -4.84,-4.2 0.99,0 2.3,-0.09 3.77,-0.11zm-16.05 -2.85c-0.31,-0.68 0.99,-0.63 1.27,-0.59 0.96,0.11 3.55,0.46 6.88,1.95l-0.48 0.72c-3.61,-0.31 -7.25,-1.34 -7.66,-2.08zm11.15 2.28c-0.64,-0.35 -1.29,-0.68 -1.93,-0.99l0.22 -0.31c2.08,-3.57 3.66,-6.04 5.21,-9.57 -0.04,2.37 0.81,7.38 1.58,10.75l-0.02 0c-2.06,0.04 -3.88,0.15 -5.06,0.11zm-10.18 -3.42c-0.46,-0.04 -0.83,-0.04 -1.16,0.02 -0.42,0.07 -0.63,0.37 -0.63,0.74 0,0.22 0.07,0.46 0.24,0.7 0.59,0.88 2.96,1.93 7.84,2.39 -2.3,3.37 -4.69,6.94 -6.53,6.79 -0.22,-0.02 -0.2,0.2 -0.02,0.37 1.73,0.53 3.57,-1.47 7.49,-7.09 0.92,0.07 1.88,0.11 2.96,0.13l0.07 0.02c2.72,1.44 5.23,4.12 7.01,7.2 0.22,0.35 0.74,-0.13 0.7,-0.28 -0.66,-2.45 -1.25,-4.64 -1.77,-7.07 1.64,-0.13 4.07,-0.39 4.56,-0.72 0.24,-0.18 0.44,-0.68 0.35,-0.59 -0.35,0.02 -3.09,0.42 -5.04,0.63 -0.92,-4.73 -1.55,-7.84 -1.55,-10.88 0,-0.39 0.02,-0.81 0.04,-1.2l0.02 0 0.04 -0.07c0.15,-0.24 -0.53,-0.74 -0.74,-0.55l0 0.04 -0.04 0 -0.02 0.02c-1.69,3.66 -3.85,7.64 -6.33,11.47 -3.35,-1.42 -6.37,-1.99 -7.47,-2.08z"/>
 </g>
</svg>
