<?xml version="1.0" encoding="UTF-8"?>
<!DOCTYPE svg PUBLIC "-//W3C//DTD SVG 1.1//EN" "http://www.w3.org/Graphics/SVG/1.1/DTD/svg11.dtd">
<!-- Creator: CorelDRAW 2019 (64-Bit) -->
<svg xmlns="http://www.w3.org/2000/svg" xml:space="preserve" width="53.34mm" height="11.8533mm" version="1.1" style="shape-rendering:geometricPrecision; text-rendering:geometricPrecision; image-rendering:optimizeQuality; fill-rule:evenodd; clip-rule:evenodd"
viewBox="0 0 415.25 92.28"
 xmlns:xlink="http://www.w3.org/1999/xlink">
 <defs>
  <style type="text/css">
   <![CDATA[
    .fil2 {fill:none}
    .fil0 {fill:#990000}
    .fil1 {fill:white}
   ]]>
  </style>
   <clipPath id="id0">
    <path d="M1.02 0l413.22 0c0.56,0 1.02,0.46 1.02,1.02l0 90.24c0,0.56 -0.46,1.02 -1.02,1.02l-413.22 0c-0.56,0 -1.02,-0.46 -1.02,-1.02l0 -90.24c0,-0.56 0.46,-1.02 1.02,-1.02z"/>
   </clipPath>
 </defs>
 <g id="Capa_x0020_1">
  <metadata id="CorelCorpID_0Corel-Layer"/>
  <path class="fil0" d="M1.02 0l413.22 0c0.56,0 1.02,0.46 1.02,1.02l0 90.24c0,0.56 -0.46,1.02 -1.02,1.02l-413.22 0c-0.56,0 -1.02,-0.46 -1.02,-1.02l0 -90.24c0,-0.56 0.46,-1.02 1.02,-1.02z"/>
  <g style="clip-path:url(#id0)">
   <g id="_2076918402912">
    <ellipse class="fil1" transform="matrix(1.59456 -0 -0.171482 0.16377 222.905 43.7868)" rx="191.97" ry="291.67"/>
   </g>
  </g>
  <path class="fil2" d="M1.02 0l413.22 0c0.56,0 1.02,0.46 1.02,1.02l0 90.24c0,0.56 -0.46,1.02 -1.02,1.02l-413.22 0c-0.56,0 -1.02,-0.46 -1.02,-1.02l0 -90.24c0,-0.56 0.46,-1.02 1.02,-1.02z"/>
 </g>
</svg>
